#!OML:ASF F:\VICON\USERDATA\INSTALL\rory3\rory3.ASF
:FULLY-SPECIFIED
:DEGREES
160
root 0.5394392446498301 17.865892582149286 63.71986760961656 -1.8470188264884682 -0.9385944243758386 -1.6519221120858838
lfemur -3.483961751396399 -3.005600254211042 -19.904390358308316
ltibia 26.44661128985973
lfoot 7.852647257949705 -9.136269636096157
ltoes -2.5491790836556456
rfemur -17.02840868832348 5.8667329515871405 23.51764756269927
rtibia 33.29130126179337
rfoot -3.0636029160696143 -10.09052672694749
rtoes 7.547080025245421
lowerback 10.818828885643047 -0.4985092616947333 0.5602713995891009
upperback 0.08954690591840686 -0.5510063554473201 1.7481041259352665
thorax -5.601981159184364 -0.2957552421387632 1.8891081716316336
lowerneck -16.397680946619698 -2.9639497436173166 -3.528479702355189
upperneck 22.045798203635428 -3.5472466561408575 1.419085275933929
head 9.652358527252115 -1.7671820450714557 0.6921340587382331
lclavicle -2.027086444770018e-15 -7.121559606764614e-16
lhumerus -33.77096731603924 4.222256375837868 80.48945296341199
lradius 26.879635684990028
lwrist 9.506320318856886
lhand -30.631842099430028 18.116072356726537
lfingers 7.12502
lthumb -3.7530548474990986 48.34137527793235
rclavicle -2.0284864503610248e-15 -7.130290800677944e-16
rhumerus -28.873812831771737 -19.858835461273966 -75.94075850289973
rradius 21.63279533158616
rwrist 6.336215965542376
rhand -17.082649014603668 22.29764918554046
rfingers 7.12502
rthumb 8.157128876797938 -6.845365536796548
161
root 0.526693023105387 17.860948504379465 63.966448661879575 -1.833537788845435 -0.6630256019541477 -1.712146605575037
lfemur -3.4106888372107855 -3.0585463644189614 -19.671167165568974
ltibia 27.663829864774833
lfoot 7.447818663965231 -8.745167559947827
ltoes -2.33697705887821
rfemur -16.68695358640923 5.754254362129117 23.654702374971198
rtibia 33.53651306429914
rfoot -3.41801073407074 -10.092617149421532
rtoes 7.5511269304905895
lowerback 10.74315747137328 -0.57849135967559 0.658841104939245
upperback 0.029139886163835477 -0.6595889882196488 1.7932313961019204
thorax -5.591018683866666 -0.36025095963205306 1.969485337485657
lowerneck -16.363226961814842 -2.9664365504542634 -3.5467547565027187
upperneck 22.052389994488333 -3.547797217354363 1.3944218767266927
head 9.64511820144287 -1.7675943452376532 0.6848745136734098
lclavicle -2.028121839492887e-15 -7.128164233336567e-16
lhumerus -33.63388691770582 3.947472748321828 80.60663745027823
lradius 26.996481481494964
lwrist 9.10492157216569
lhand -30.67503505676001 17.944508737056115
lfingers 7.12502
lthumb -3.7033315743847672 48.208271299342236
rclavicle -2.0282426132237356e-15 -7.128733464548769e-16
rhumerus -28.85643208451013 -19.945891367579627 -75.83124608634932
rradius 21.603754534705153
rwrist 6.567738115727355
rhand -17.134841692734792 22.33081958419405
rfingers 7.12502
rthumb 8.121276696559082 -6.807504238780234
162
root 0.5142834889838559 17.85526188046224 64.09164202955775 -1.871532812854801 -0.5149123647417709 -1.8231250125676315
lfemur -3.7220879255019375 -2.9686617456059237 -19.383008963620117
ltibia 29.316006066907967
lfoot 7.195292852278836 -8.364260786753544
ltoes -2.631088678080884
rfemur -16.30975798294677 5.672260197830152 23.85910957108017
rtibia 33.94540682077416
rfoot -3.9144935182499125 -10.00187484255078
rtoes 7.699355608428677
lowerback 10.718507944535162 -0.5834651743797171 0.7805205959390418
upperback -0.02196746190769025 -0.6618322717645608 1.8410673144339769
thorax -5.591242129009515 -0.3675747832111533 2.0165939650805993
lowerneck -16.31924464742617 -2.9759063787611986 -3.545266067769041
upperneck 22.05967390666901 -3.5622758103710135 1.3813019665259978
head 9.640496089416663 -1.7733347627620673 0.6763781555630165
lclavicle -2.027614503618994e-15 -7.124940808922188e-16
lhumerus -33.4117983089716 3.4838390602901184 80.70691750133334
lradius 27.17621022673575
lwrist 8.832112422969185
lhand -30.699984104948882 17.9717856818289
lfingers 7.12502
lthumb -3.685270618354636 48.13164357293181
rclavicle -2.0282973701801466e-15 -7.129083103397197e-16
rhumerus -28.842379105613592 -20.056479614286584 -75.75377412223304
rradius 21.545332962885407
rwrist 6.591802252650874
rhand -17.187470843660524 22.369237273017493
rfingers 7.12502
rthumb 8.096025945443639 -6.858773996686942
163
root 0.5048736179005979 17.839336474010935 64.45946439616458 -1.8194892102803566 -0.24211090868944812 -1.8857181124714715
lfemur -4.333432197032211 -2.9040253572973347 -19.117454936108704
ltibia 31.04432252099565
lfoot 6.898198169700779 -7.997416797060877
ltoes -2.466482301838189
rfemur -15.999351161657644 5.517414804369206 24.01819452320826
rtibia 34.64925148070534
rfoot -4.688523920458182 -9.903429499625215
rtoes 7.773186939129934
lowerback 10.660017532261099 -0.6212238460978807 0.9105624448668467
upperback -0.060930356714171775 -0.6920385488875289 1.8863401336197976
thorax -5.583175349514238 -0.4016447604707262 2.020039379057345
lowerneck -16.293184944146486 -2.9873912304169563 -3.536304782583848
upperneck 22.068967003351133 -3.5844956175864953 1.3692729134942863
head 9.64383501646153 -1.781165275727686 0.6648442792696161
lclavicle -2.02759961359344e-15 -7.124839573270549e-16
lhumerus -33.16152410162796 2.8269880617246645 80.78517349354576
lradius 27.413111648586618
lwrist 8.49758064016475
lhand -30.722372261242093 18.019758675619308
lfingers 7.12502
lthumb -3.6395354162747777 48.15988367176878
rclavicle -2.028020373807268e-15 -7.127314630660341e-16
rhumerus -28.842951576353556 -20.254728530527778 -75.65466308986885
rradius 21.516005051715343
rwrist 6.688915627229598
rhand -17.2633018064473 22.33454598875485
rfingers 7.12502
rthumb 8.05926886066516 -6.9915101732038885
164
root 0.49697134728103276 17.836893232147318 64.59877644407956 -1.7577875071688938 -0.13363282546631955 -1.977202908680716
lfemur -5.1831040123995376 -2.7621848574742085 -18.827761560625923
ltibia 32.69184228395666
lfoot 6.629321143376259 -7.449068228615165
ltoes -1.8192205511879553
rfemur -15.72059617668724 5.412048126701421 24.278362045004595
rtibia 35.424707773147205
rfoot -5.398485089399074 -9.802814738291376
rtoes 7.217702949977365
lowerback 10.608955344524597 -0.577108088519412 1.0170782163004437
upperback -0.12056118383330311 -0.6183985491748114 1.9291938174639436
thorax -5.592446655962388 -0.3727413868906269 1.96439214208951
lowerneck -16.257282345205954 -3.001744812686972 -3.5245494060215936
upperneck 22.07726893642675 -3.610087732328606 1.3634574650956994
head 9.64686375419919 -1.789379785572153 0.6537939239016906
lclavicle -2.0278778697156824e-15 -7.126611976273374e-16
lhumerus -32.8268056554171 2.2643174606998295 80.8108439391005
lradius 27.598979711895165
lwrist 7.996956537741794
lhand -30.66781070200236 18.25594786534152
lfingers 7.12502
lthumb -3.582454445656416 48.30019912697398
rclavicle -2.0281079005776333e-15 -7.127873735323844e-16
rhumerus -28.92541997262029 -20.500081384265133 -75.56258441730171
rradius 21.551678296329428
rwrist 6.671427032218644
rhand -17.318416603221106 22.270010669463183
rfingers 7.12502
rthumb 8.054802218118029 -7.137780518347726
165
root 0.4902316113655132 17.821666615117714 64.67855546802373 -1.7935263973860296 0.02396387540999123 -2.0321967151487628
lfemur -6.198877764709982 -2.6763110019493515 -18.556902319243143
ltibia 34.20722853855472
lfoot 6.34638998665158 -6.654234807895852
ltoes -2.0987233508757566
rfemur -15.500821836646793 5.139722838198866 24.462454770716455
rtibia 36.35230718288129
rfoot -6.190672680527561 -9.729054249922353
rtoes 6.730199030501359
lowerback 10.651720190836963 -0.5678411920020123 1.142335838890252
upperback -0.16082029284864147 -0.5835455510716063 1.9614836605662307
thorax -5.671285226071405 -0.36663225382793324 1.8814489015944504
lowerneck -16.2068757074006 -3.018248719605804 -3.5125011087793014
upperneck 22.083181342704314 -3.638072501620035 1.383787348051205
head 9.649527102720755 -1.7966234485009498 0.6513786818256857
lclavicle -2.026862441665399e-15 -7.120124984775934e-16
lhumerus -32.391256198900734 1.7896409920656944 80.83660248837008
lradius 27.77405825372455
lwrist 7.846325351737562
lhand -30.554217676013444 18.38645046726541
lfingers 7.12502
lthumb -3.4716313489549675 48.397987732159024
rclavicle -2.0277290073946745e-15 -7.125454590995741e-16
rhumerus -29.006054523499255 -20.74451698135554 -75.5095519111719
rradius 21.5925536627178
rwrist 6.5888671043151135
rhand -17.398721128043935 22.12527104314656
rfingers 7.12502
rthumb 7.998544748714698 -7.439113591538403
